<svg width="145" height="145" viewBox="0 0 145 145" fill="none" xmlns="http://www.w3.org/2000/svg">
<path fill-rule="evenodd" clip-rule="evenodd" d="M145 0H0V145H145V0ZM30.8864 33.6764H29.9088C29.5977 34.0407 29.1818 34.2366 28.7633 34.4337C28.4697 34.572 28.1749 34.7109 27.9142 34.9089C27.7957 34.999 27.6955 35.1152 27.5987 35.2274C27.5533 35.28 27.5087 35.3317 27.4633 35.3794C27.0929 35.489 26.7323 35.5888 26.4007 35.6805C26.3616 35.6913 26.323 35.702 26.2847 35.7126C26.2888 35.9714 26.446 36.1589 26.6066 36.3505C26.8262 36.6124 27.0522 36.882 26.9022 37.3519C26.6081 37.0897 26.3386 36.8496 26.0691 36.6119C24.8463 36.9966 23.7167 37.5332 22.7611 38.4864C22.913 38.7878 23.0649 39.0916 23.185 39.3318C23.1502 39.5845 23.1161 39.8271 23.0826 40.0649C23.0525 40.2789 23.0229 40.489 22.9939 40.6991C22.6872 40.8057 22.3722 40.8901 22.0542 40.9753C21.305 41.1761 20.5387 41.3815 19.8231 41.8924C19.8506 41.9658 19.8832 42.0413 19.9166 42.1186C19.9936 42.2968 20.0749 42.4849 20.1074 42.6814C20.1429 42.8945 20.1352 43.1159 20.1271 43.351C20.1234 43.4565 20.1196 43.5647 20.1196 43.6762H19.115C19.0371 43.7632 18.9677 43.8409 18.9037 43.9125C18.7784 44.0528 18.674 44.1696 18.5686 44.2864C18.2995 44.599 18.4297 44.9009 18.5668 45.219C18.6145 45.3297 18.6631 45.4424 18.696 45.5581C19.3135 45.8105 19.7251 46.33 20.127 46.8715C20.2778 47.0774 20.4672 47.2558 20.6559 47.4335C20.7187 47.4926 20.7813 47.5516 20.8425 47.6115C20.9079 47.6749 20.9779 47.7342 21.048 47.7936C21.1486 47.8788 21.2494 47.9642 21.3375 48.0624C21.3894 48.1203 21.432 48.2038 21.4726 48.2837C21.5318 48.3998 21.5869 48.508 21.6609 48.5181C22.001 48.5631 22.223 48.7711 22.4443 48.9786C22.585 49.1105 22.7255 49.2421 22.8959 49.3316C23.19 49.4853 23.4675 49.6713 23.7763 49.8784C23.9254 49.9783 24.0818 50.0832 24.2509 50.1917C24.3329 50.7611 24.6751 51.2443 25.0293 51.7445C25.2574 52.0667 25.4905 52.3959 25.6623 52.7597C25.7799 53.0096 26.0642 53.1689 26.417 53.2693C27.0419 53.4458 27.6324 53.7594 28.0195 54.3842C28.3185 54.867 28.7448 55.2811 29.1663 55.6707C29.345 55.8351 29.5482 55.9741 29.7507 56.1125C30.0009 56.2835 30.2499 56.4538 30.4503 56.6704C31.0237 57.2928 31.6142 57.9446 31.9964 58.687C32.2626 59.2082 32.6473 59.3843 33.0273 59.5583C33.0636 59.5749 33.0998 59.5915 33.1359 59.6084C33.4127 59.9539 33.6627 60.2651 33.9175 60.5811L34.1919 60.3067C34.2127 60.368 34.2323 60.4265 34.2526 60.4872C34.2826 60.577 34.3142 60.6715 34.3537 60.787C34.9932 60.6841 35.5249 61.1398 35.7969 61.5368C36.0078 61.844 36.2899 62.0385 36.5705 62.2319C36.8181 62.4026 37.0645 62.5725 37.2598 62.8183C37.5385 63.1694 37.9431 63.4227 38.3462 63.6751C38.503 63.7733 38.6595 63.8713 38.8084 63.9749C38.9449 64.0689 39.0911 64.1523 39.237 64.2355C39.4944 64.3823 39.751 64.5287 39.9527 64.732C40.3774 65.1614 40.8715 65.5002 41.3655 65.8389C41.909 66.2116 42.4524 66.5841 42.9029 67.077C43.0494 67.2383 43.2409 67.3666 43.4303 67.4934C43.6782 67.6593 43.9223 67.8227 44.057 68.0547C44.3061 68.4837 44.6664 68.7613 45.0249 69.0375C45.1741 69.1525 45.3231 69.2672 45.4635 69.3926C45.8994 69.7819 46.3612 70.1419 46.8233 70.5022C47.164 70.7678 47.5048 71.0336 47.8355 71.3112C48.0056 71.4532 48.1419 71.6413 48.2739 71.8234C48.3719 71.9587 48.4676 72.0907 48.573 72.1982C48.6469 72.2735 48.7316 72.3385 48.8167 72.4038C49.0195 72.5594 49.2239 72.7162 49.2861 73.0166H49.759C50.227 73.5827 50.7685 74.0262 51.4007 74.3692V74.825C51.1266 75.1266 50.8465 75.422 50.5672 75.7167C49.9024 76.4178 49.2418 77.1145 48.6759 77.8806C48.2235 78.492 47.6997 79.0232 47.1763 79.554C46.9739 79.7592 46.7716 79.9644 46.5735 80.1741C45.5468 81.2571 44.6329 82.421 43.7997 83.6634C43.4156 84.2348 42.9718 84.7655 42.5278 85.2964C42.2922 85.5782 42.0565 85.86 41.8297 86.148C41.672 86.3485 41.5136 86.5484 41.3553 86.7482C40.4088 87.9426 39.4636 89.1353 38.6785 90.4557C38.3638 90.9838 37.9689 91.4644 37.5738 91.9453C37.3474 92.2208 37.1209 92.4964 36.9094 92.7811C36.1032 93.8666 35.3069 94.9594 34.5178 96.0572C33.7639 97.1079 33.0577 98.189 32.3515 99.27C31.839 100.055 31.3265 100.839 30.7958 101.612C30.2019 102.477 29.6528 103.372 29.1032 104.267C28.4941 105.26 27.8845 106.253 27.2134 107.206C26.9869 107.527 26.7766 107.86 26.5671 108.193C26.5318 108.249 26.4965 108.305 26.4611 108.36C26.4139 108.434 26.3578 108.508 26.3015 108.583C26.162 108.766 26.0214 108.952 26.0127 109.142C25.9922 109.548 25.8079 109.87 25.6251 110.189C25.5462 110.327 25.4676 110.464 25.4026 110.607C25.2648 110.915 25.0428 111.186 24.796 111.486C24.683 111.624 24.5647 111.769 24.4469 111.926C24.6385 112.109 24.8235 112.3 25.0099 112.492C25.4672 112.964 25.933 113.444 26.5248 113.839C26.451 113.944 26.3771 114.047 26.2602 114.21L26.1867 114.312C26.2756 114.294 26.3558 114.278 26.4333 114.263C26.5886 114.232 26.733 114.203 26.9144 114.165C27.3751 115.089 28.245 115.667 29.502 116.27C29.5714 116.348 29.658 116.429 29.7523 116.517C30.1376 116.877 30.6527 117.358 30.6586 118.23H31.8225C31.7294 118.75 31.6509 119.186 31.5774 119.603C31.9962 119.684 32.3781 119.758 32.7568 119.832C32.9719 119.874 33.1861 119.915 33.4054 119.958C33.5573 119.725 33.719 119.478 33.9273 119.159L33.9729 119.23C34.1441 119.498 34.2921 119.729 34.4835 120.031C34.7825 119.74 35.0716 119.458 35.3608 119.176L35.4906 119.284C35.0863 119.985 34.682 120.686 34.2508 121.43C34.3093 121.483 34.3723 121.531 34.4343 121.579C34.5695 121.683 34.7005 121.783 34.7727 121.916C34.9123 122.175 35.0594 122.32 35.3534 122.428C35.4838 122.476 35.5697 122.648 35.668 122.845C35.7157 122.941 35.7663 123.042 35.8263 123.138H36.7673C36.7129 123.224 36.6677 123.295 36.6254 123.36C36.5647 123.455 36.5102 123.539 36.4438 123.643C36.5644 123.764 36.7054 123.859 36.8466 123.955C37.1301 124.147 37.4148 124.339 37.5391 124.738C37.6469 125.084 37.9064 125.382 38.1591 125.672C38.2683 125.797 38.3763 125.921 38.4702 126.047C38.8133 126.062 39.0853 126.074 39.4014 126.089V126.912C40.0458 127.154 40.6437 127.38 41.2538 127.61C41.9284 126.618 42.5765 125.668 43.2346 124.702C43.4251 124.423 43.6165 124.142 43.8095 123.859C43.8898 123.511 44.1109 123.214 44.3346 122.914C44.4933 122.702 44.6533 122.487 44.7652 122.251C44.8861 121.995 45.0896 121.807 45.2949 121.618C45.5639 121.371 45.836 121.12 45.9291 120.708C45.9732 120.811 46.0197 120.916 46.1129 121.132C46.3579 121.225 46.7083 121.357 46.9754 121.457C47.2765 121.154 47.5066 120.921 47.7367 120.689C47.6994 120.858 47.6617 121.028 47.6239 121.198C47.575 121.418 47.5259 121.639 47.4777 121.859L47.6933 121.95C48.3108 120.953 48.9283 119.958 49.5458 118.963C49.5912 119.002 49.6319 119.038 49.6738 119.075C49.736 119.129 49.8011 119.186 49.8888 119.262C50.0492 119.037 50.2125 118.816 50.3748 118.597C50.7283 118.12 51.0772 117.648 51.3811 117.15C52.398 115.484 53.459 113.852 54.5592 112.237C55.1963 111.301 55.8211 110.348 56.3357 109.318C56.8454 108.299 57.5486 107.361 58.2543 106.454C59.0164 105.474 59.7539 104.481 60.4523 103.455C60.7921 102.954 61.159 102.469 61.5258 101.985C61.6272 101.851 61.7286 101.717 61.8294 101.583C62.0489 101.291 62.2708 101.001 62.4925 100.711C62.7904 100.322 63.0882 99.9325 63.3804 99.5391C63.5099 99.3644 63.6408 99.1906 63.7717 99.0168C64.2227 98.4177 64.6737 97.8187 65.0687 97.1844C65.2166 96.949 65.3997 96.7496 65.5839 96.5491C65.7661 96.3508 65.9492 96.1514 66.1003 95.9151C66.6327 95.0827 67.2607 94.3142 67.9055 93.5253C68.1718 93.1993 68.441 92.87 68.7075 92.5312C69.1334 92.7962 69.4741 93.16 69.8152 93.5242C70.0196 93.7424 70.2241 93.9608 70.4472 94.1582C70.3843 94.4262 70.5785 94.4838 70.738 94.5311C70.8395 94.5612 70.9269 94.5871 70.925 94.6605C70.9167 94.9177 71.0506 94.9609 71.1848 95.0042C71.2475 95.0244 71.3103 95.0447 71.3587 95.0869C71.448 95.1649 71.5417 95.2422 71.6361 95.3201C71.9952 95.6162 72.3642 95.9205 72.5349 96.3047C72.6256 96.5089 72.8062 96.6201 72.983 96.7289C73.2218 96.8759 73.4535 97.0185 73.4464 97.3804C73.4448 97.4516 73.5681 97.5219 73.6964 97.595C73.7668 97.6351 73.8386 97.676 73.8924 97.7185C73.9914 97.7962 74.0883 97.8774 74.1854 97.9587C74.2996 98.0545 74.414 98.1503 74.5319 98.2404C74.7015 98.3713 74.8059 98.5667 74.9102 98.7619C75.0832 99.0856 75.256 99.4087 75.7252 99.4362C75.7826 99.8599 76.0853 100.036 76.3885 100.213C76.5517 100.308 76.715 100.403 76.8401 100.536C77.563 101.308 78.3153 102.053 79.0798 102.786C79.465 103.155 79.8466 103.53 80.2284 103.904C81.3083 104.964 82.3895 106.025 83.559 106.973C84.1684 107.467 84.718 108.018 85.2662 108.568C85.7936 109.097 86.3196 109.624 86.8963 110.098C87.5879 110.666 88.2282 111.285 88.8675 111.904C89.3811 112.402 89.894 112.898 90.4322 113.366C90.5953 113.508 90.7618 113.646 90.9286 113.785C91.3082 114.1 91.6892 114.417 92.0347 114.773C93.5368 116.319 95.3084 117.473 97.2883 118.301C97.9645 118.583 98.6702 118.809 99.5083 118.713C99.5205 118.544 99.5377 118.355 99.5548 118.137C98.8573 117.864 98.4511 117.298 98.0195 116.695C97.8734 116.491 97.7244 116.283 97.5602 116.081V115.444C97.3353 115.054 97.0344 115.059 96.6983 115.063C96.6206 115.065 96.541 115.066 96.46 115.062C96.3767 114.948 96.2713 114.807 96.1621 114.66C96.1301 114.617 96.0977 114.574 96.0655 114.53L96.0095 114.582C95.9282 114.656 95.8722 114.707 95.7813 114.79C95.6794 114.732 95.5741 114.672 95.4625 114.609C95.2924 114.512 95.1078 114.408 94.8992 114.288V113.354C94.7766 113.423 94.6517 113.491 94.4434 113.607C94.3552 113.369 94.2596 113.116 94.1543 112.876C94.5463 112.822 94.8036 112.967 94.8992 113.352C95.3819 112.972 96.0214 112.962 96.4723 113.143C96.9876 113.351 97.5247 113.469 98.0616 113.587C98.62 113.709 99.1782 113.831 99.7116 114.055C100.011 114.18 100.376 114.147 100.74 114.114C100.906 114.099 101.071 114.084 101.231 114.084C101.285 113.594 101.037 113.462 100.724 113.344C100.403 113.224 100.216 112.987 100.256 112.602C100.681 112.898 101.161 113.021 101.66 113.15C102.106 113.265 102.568 113.384 103.02 113.633C102.97 113.473 102.931 113.351 102.89 113.223C102.859 113.124 102.826 113.022 102.787 112.896C102.867 112.853 103.012 112.777 103.237 112.659L103.419 112.563C103.303 112.517 103.218 112.479 103.152 112.45C103.042 112.401 102.986 112.376 102.931 112.376C102.498 112.389 102.28 112.176 102.191 111.688C102.251 111.688 102.313 111.681 102.372 111.675C102.489 111.663 102.593 111.652 102.637 111.698C102.979 112.062 103.414 112.256 103.848 112.449C104.04 112.534 104.231 112.62 104.414 112.72C104.803 112.931 105.201 112.896 105.601 112.86C105.779 112.845 105.958 112.829 106.136 112.835V112.465C106.011 112.423 105.872 112.376 105.852 112.369C105.514 111.759 105.222 111.232 104.924 110.693H103.387C103.461 110.59 103.514 110.515 103.559 110.452C103.603 110.389 103.638 110.339 103.676 110.286L103.675 110.278C103.604 109.933 103.529 109.565 103.444 109.211C103.461 109.215 103.478 109.219 103.495 109.223C103.669 109.262 103.839 109.301 103.992 109.372C104.071 109.409 104.149 109.445 104.227 109.482C104.81 109.757 105.381 110.027 106.085 109.953C106.477 109.911 106.972 110.024 107.283 110.254C107.649 110.523 107.901 110.394 108.169 110.256C108.227 110.227 108.284 110.197 108.344 110.171V109.439C108.183 109.331 108.025 109.224 107.866 109.117L107.864 109.115C107.969 108.936 108.06 108.782 108.219 108.512C107.68 108.485 107.251 108.463 106.808 108.441C106.389 108.221 105.955 107.99 105.536 107.767C105.406 107.373 105.289 107.015 105.139 106.562C105.225 106.585 105.305 106.609 105.382 106.632C105.545 106.681 105.693 106.725 105.845 106.743C106.007 106.763 106.172 106.759 106.354 106.755C106.437 106.753 106.523 106.75 106.614 106.75C106.68 106.606 106.743 106.467 106.811 106.318C106.863 106.205 106.918 106.087 106.977 105.957C106.837 105.849 106.705 105.747 106.567 105.64C106.424 105.528 106.274 105.412 106.1 105.278H105.857C105.529 104.871 105.242 104.513 104.958 104.158C105.056 104.132 105.157 104.109 105.259 104.085C105.486 104.033 105.717 103.979 105.936 103.896C106.117 103.826 106.289 103.725 106.49 103.606C106.592 103.546 106.702 103.481 106.825 103.413V102.212C106.435 102.139 106.05 102.067 105.613 101.985C105.322 101.931 105.007 101.872 104.652 101.806C104.868 101.731 105.009 101.682 105.123 101.642C105.226 101.606 105.307 101.577 105.399 101.546C105.486 100.829 105.029 100.548 104.573 100.269C104.341 100.126 104.109 99.9837 103.951 99.7842L104.201 99.5342C103.849 99.4009 103.637 99.1276 103.422 98.8517C103.194 98.5598 102.964 98.265 102.566 98.1302C102.353 98.0574 102.183 97.8499 102.013 97.6429C101.937 97.5505 101.862 97.4581 101.782 97.3779C101.703 97.2974 101.607 97.2192 101.512 97.1409C101.298 96.9669 101.085 96.7925 101.054 96.5914C101.015 96.3287 100.821 96.2664 100.646 96.2103C100.487 96.1591 100.344 96.1131 100.349 95.9249C100.351 95.828 100.288 95.7414 100.224 95.6545C100.112 95.5019 99.9998 95.3482 100.243 95.1359C100.273 95.1103 100.104 94.8503 99.9639 94.6346C99.9292 94.5811 99.8962 94.5303 99.8685 94.4865C99.7676 94.3266 99.6606 94.1691 99.5571 94.0168C99.5147 93.9544 99.4729 93.8928 99.4323 93.8323C99.3607 93.8717 99.2862 93.9134 99.1994 93.962C99.108 94.0131 99.0031 94.0719 98.8736 94.1435C98.8369 93.7392 98.8099 93.4353 98.7805 93.0898H97.6092C97.6648 92.9707 97.7098 92.8725 97.7617 92.7592C97.8038 92.6676 97.8503 92.566 97.9106 92.4356C97.8388 92.41 97.7536 92.379 97.6618 92.3455C97.5688 92.3117 97.4689 92.2753 97.3691 92.2396C96.809 92.2211 96.3016 91.9367 95.7749 91.6415C95.6011 91.5441 95.4252 91.4456 95.2447 91.355C94.1359 90.7988 93.2648 89.9775 92.3907 89.1534C92.0942 88.8738 91.7973 88.5939 91.4907 88.3239C89.6989 86.7435 88.0126 85.0566 86.326 83.3695C85.3533 82.3964 84.3806 81.4233 83.3875 80.4706C83.1957 80.2864 83.0168 80.0912 82.8383 79.8964C82.5559 79.5883 82.2744 79.2812 81.9442 79.02C82.5066 78.4583 83.0684 77.8986 83.6293 77.3399C85.1825 75.7928 86.7286 74.2528 88.2587 72.6956C89.2977 71.6395 90.3317 70.5687 91.2727 69.4244C92.03 68.5032 92.8241 67.6168 93.6182 66.7303C94.0703 66.2257 94.5224 65.721 94.9678 65.2098C95.1523 64.9985 95.3418 64.7909 95.5318 64.5828C96.0531 64.0117 96.5772 63.4376 97.0065 62.7767C97.2449 62.4087 97.5522 62.0881 97.8623 61.7646C98.1036 61.5128 98.3466 61.2594 98.56 60.9806C99.004 60.4003 99.5084 59.8667 100.013 59.3328C100.389 58.9356 100.764 58.5381 101.116 58.121C101.302 57.8996 101.496 57.6846 101.689 57.4696C102.178 56.9276 102.667 56.3855 103.027 55.7417C103.066 55.6731 103.135 55.6168 103.198 55.5677C104.007 54.9389 104.42 54.0581 104.833 53.1772C104.943 52.9425 105.053 52.7078 105.171 52.4779C105.428 51.978 105.59 51.4855 105.23 50.944C105.153 50.8277 105.136 50.6721 105.117 50.4983C105.108 50.412 105.098 50.3212 105.08 50.2285L104.987 50.2685C104.839 50.3323 104.715 50.3857 104.541 50.4612C104.213 50.3436 103.804 50.1966 103.395 50.0496C103.327 50.0924 103.26 50.1361 103.144 50.2115C103.061 50.2656 102.953 50.3361 102.802 50.4343C103.252 49.5203 103.578 48.8587 103.951 48.1016V47.3787C103.724 47.2885 103.472 47.1901 103.205 47.0862C103.145 47.0631 103.085 47.0397 103.025 47.0161C103.217 46.6323 103.413 46.2411 103.611 45.8445C103.809 45.4484 104.01 45.0469 104.213 44.6417C104.059 44.3882 103.906 44.1332 103.743 43.8625L103.605 43.6346C103.308 43.7735 103.031 43.9038 102.748 44.0369C102.607 44.1034 102.464 44.1705 102.316 44.2398C102.15 43.7393 102.359 43.4018 102.532 43.1229C102.578 43.0481 102.621 42.9776 102.655 42.9093C102.58 42.8179 102.511 42.7278 102.444 42.6404C102.304 42.4583 102.174 42.288 102.02 42.1423C101.869 41.9978 101.693 41.8798 101.513 41.7583C101.43 41.7026 101.346 41.6462 101.263 41.5861V41.0642C100.835 41.1015 100.69 40.831 100.532 40.5382C100.442 40.3695 100.347 40.1934 100.192 40.0644H99.7704C98.9741 39.1554 98.2414 38.3198 97.3691 37.325C97.4034 36.9574 97.2932 36.3963 96.7418 35.8817H95.8303C95.8936 35.6181 95.9462 35.4059 95.998 35.1967C96.0204 35.1064 96.0426 35.0167 96.0655 34.9236C95.9441 34.9169 95.8217 34.9097 95.6985 34.9025C95.5507 34.8938 95.4017 34.8851 95.252 34.8771L94.9065 34.5316V33.6764H94.4189C94.3135 33.8357 94.2082 33.9925 94.1126 34.1346C93.6397 34.1371 92.5346 33.8675 92.2185 33.6764H91.7309C91.3903 34.3208 90.8046 34.436 90.1553 34.4164C90.022 34.5363 89.8885 34.6563 89.7541 34.777C89.4684 35.0337 89.1786 35.294 88.8787 35.5656C88.8663 35.5559 88.8352 35.5307 88.7964 35.4992C88.7663 35.4747 88.7316 35.4464 88.6973 35.4186C88.4597 35.5926 88.2195 35.769 87.8544 36.0385C87.8303 36.0857 87.8025 36.1402 87.7712 36.2014C87.6596 36.4197 87.5051 36.7222 87.3252 37.0726C86.6738 36.9592 86.193 37.2802 85.7057 37.6056C85.4029 37.8078 85.0977 38.0116 84.7474 38.114C84.4901 38.6249 84.231 39.1388 83.9716 39.6534C83.7073 40.1778 83.4426 40.7028 83.1792 41.2259H82.4196C82.3441 41.2838 82.2732 41.3467 82.204 41.4081C82.0506 41.5441 81.9055 41.6727 81.7384 41.7233C81.3733 41.836 81.2679 42.0762 81.1773 42.3923C81.0987 42.6681 80.9567 42.9159 80.8145 43.1637C80.6372 43.4729 80.4598 43.7822 80.4054 44.1467C79.9288 44.6258 79.525 45.1619 79.1204 45.6992C78.7428 46.2005 78.3645 46.7028 77.9257 47.1606C77.7943 47.2971 77.6625 47.4334 77.5306 47.5698C76.54 48.5937 75.5442 49.6231 74.7182 50.7994C74.5732 51.004 74.3832 51.1778 74.1935 51.3512C74.1106 51.4271 74.0277 51.5028 73.9487 51.581C72.9907 52.5269 72.1134 53.5389 71.3538 54.6538C71.2467 54.8111 71.1007 54.9433 70.9549 55.0753C70.8872 55.1366 70.8196 55.1978 70.756 55.2615C69.7926 56.226 68.8286 57.19 67.8637 58.1549C66.8996 59.119 65.9345 60.0841 64.9682 61.0516C64.7238 60.8064 64.4807 60.5596 64.2377 60.3129C63.7111 59.7782 63.1844 59.2436 62.6429 58.7238C61.0771 57.2168 59.4991 55.7221 57.9113 54.2372C57.7049 54.0449 57.4804 53.8714 57.2557 53.6978C57.0509 53.5395 56.8459 53.381 56.6542 53.2081C56.469 53.0412 56.2961 52.8591 56.1233 52.6771C55.9027 52.445 55.6823 52.2128 55.4364 52.0123C54.6474 51.3667 53.8828 50.6923 53.1187 50.0182C52.6038 49.564 52.0891 49.11 51.5673 48.6651C51.1168 48.2805 50.679 47.881 50.2412 47.4816C49.5383 46.8404 48.8354 46.1992 48.0805 45.6194C47.1643 44.9156 46.3023 44.1459 45.4406 43.3763C45.0601 43.0365 44.6797 42.6968 44.2947 42.3629L44.2607 42.3333C43.0124 41.2502 41.7555 40.1595 40.3301 39.2926C39.9331 39.0524 39.5337 38.7854 39.2176 38.4521C38.6593 37.8625 37.997 37.4097 37.3342 36.9565C36.7025 36.5246 36.0703 36.0924 35.5274 35.5411C35.1072 35.1143 34.6144 34.759 34.1214 34.4035C33.8842 34.2324 33.6469 34.0613 33.4176 33.8822C33.3833 33.8545 33.3686 33.8027 33.3539 33.751C33.3466 33.7251 33.3392 33.6993 33.3294 33.6764H32.5968C32.4669 33.8553 32.337 34.0341 32.1949 34.2277C32.0324 34.1583 31.866 34.1178 31.7041 34.0784C31.3973 34.0038 31.1062 33.933 30.8864 33.6764ZM103.444 109.21C103.449 109.207 103.464 109.191 103.48 109.176C103.459 109.152 103.438 109.127 103.417 109.102C103.381 109.06 103.346 109.018 103.309 108.975L103.233 109.051C103.299 109.108 103.365 109.164 103.444 109.208C103.444 109.209 103.444 109.21 103.444 109.21ZM99.5499 112.587C99.8244 112.587 100.05 112.587 100.256 112.602C100.055 112.44 99.8195 112.435 99.5499 112.587ZM94.1543 112.876C94.0759 112.832 94.0097 112.776 93.9436 112.72L93.9435 112.72L94.0195 112.644L94.191 112.842C94.1824 112.849 94.1745 112.857 94.1681 112.864C94.1616 112.87 94.1567 112.875 94.1543 112.876ZM47.7383 120.685C48.3271 120.148 48.7102 119.563 49.0359 118.627C49.036 118.627 49.0361 118.627 49.0361 118.627C49.0488 118.662 49.0615 118.697 49.0729 118.733C49.1145 118.586 49.1562 118.439 49.1023 118.431C49.1019 118.432 49.1014 118.432 49.101 118.433C49.1014 118.431 49.1019 118.43 49.1023 118.429C49.0533 118.304 48.9626 118.353 48.9675 118.39C48.9751 118.441 48.9892 118.492 49.0059 118.542C48.2983 119.359 47.9286 119.966 47.7383 120.685ZM49.0059 118.542C49.0153 118.57 49.0256 118.598 49.0359 118.627C49.0579 118.564 49.0796 118.499 49.101 118.433C49.0686 118.469 49.0369 118.506 49.0059 118.542ZM27.4633 35.3794C27.5417 35.4235 27.6079 35.4798 27.674 35.5362L27.5981 35.6122C27.5393 35.546 27.4829 35.4798 27.4266 35.4137C27.4351 35.4063 27.4431 35.3984 27.4495 35.3919C27.456 35.3855 27.4609 35.3806 27.4633 35.3794ZM99.7778 54.1809L99.8244 54.2274C99.8317 54.1147 99.8881 54.0485 99.9444 53.9824L100.02 54.0583C99.9543 54.1171 99.8882 54.1734 99.8221 54.2297L99.8219 54.2299L99.7753 54.1833C99.768 54.296 99.7116 54.3622 99.6553 54.4283L99.5793 54.3524C99.6455 54.2936 99.7116 54.2372 99.7778 54.1809ZM102.463 108.483L102.51 108.436V108.436C102.511 108.437 102.512 108.438 102.512 108.439L102.466 108.485C102.579 108.493 102.645 108.549 102.711 108.605L102.635 108.681L102.463 108.483ZM102.508 108.434C102.396 108.426 102.331 108.37 102.265 108.314L102.341 108.238C102.398 108.305 102.453 108.369 102.508 108.434ZM99.069 106.75C99.0684 106.75 99.0678 106.75 99.0672 106.75C99.0353 106.841 98.979 106.907 98.9226 106.973L98.8467 106.898L99.0452 106.726L99.069 106.75ZM99.0854 106.743C99.0672 106.652 99.0672 106.579 99.0672 106.505C97.7603 106.068 96.8299 105.13 95.9349 104.227C95.8532 104.145 95.7719 104.063 95.6906 103.982V103.32C96.2698 103.841 96.8383 104.352 97.4011 104.858C97.9861 105.384 98.565 105.904 99.1432 106.425C99.1358 106.559 99.202 106.616 99.2706 106.67C99.2364 106.683 99.2028 106.696 99.1693 106.71C99.1414 106.721 99.1136 106.732 99.0854 106.743ZM98.5526 105.062L98.5992 105.016C98.4865 105.008 98.4203 104.952 98.3541 104.896L98.4301 104.82L98.6016 105.018L98.5551 105.065C98.6678 105.072 98.734 105.128 98.8001 105.185L98.7242 105.261C98.6653 105.195 98.609 105.128 98.5526 105.062ZM102.998 53.4972L102.951 53.4506C102.944 53.5634 102.887 53.6295 102.831 53.6957L102.755 53.6197C102.821 53.5609 102.887 53.5046 102.953 53.4482L103 53.4948C103.007 53.382 103.064 53.3159 103.12 53.2497L103.196 53.3257C103.13 53.3845 103.064 53.4408 102.998 53.4972ZM93.6936 102.11L93.6912 102.107V102.11C93.6005 102.078 93.5343 102.021 93.4682 101.965L93.5441 101.889C93.5783 101.927 93.6116 101.966 93.6446 102.004C93.6684 102.032 93.692 102.06 93.7157 102.087L93.6936 102.11ZM93.9362 102.352C93.9523 102.619 94.1067 102.607 94.2595 102.596C94.316 102.591 94.3724 102.587 94.4214 102.597C94.5365 102.832 94.6492 103.065 94.7595 103.293C94.8668 103.331 94.9734 103.369 95.0794 103.406C95.1792 103.442 95.2784 103.477 95.377 103.511C95.4015 103.471 95.426 103.431 95.4505 103.391C95.475 103.351 95.4995 103.311 95.524 103.271C95.3672 103.205 95.2616 103.078 95.1562 102.952C94.9847 102.747 94.8137 102.543 94.4238 102.597C94.4077 102.331 94.2534 102.342 94.0997 102.354C94.0427 102.358 93.9859 102.362 93.9362 102.352ZM98.8245 55.9156C98.8237 55.9156 98.8229 55.9156 98.8222 55.9157L98.8246 55.9181C98.7928 56.0088 98.7364 56.075 98.68 56.1411L98.6041 56.0652C98.6701 56.0065 98.7361 55.9503 98.802 55.8941L98.8026 55.8936L98.8245 55.9156ZM98.8495 55.9135C98.8489 55.8704 98.8427 55.8249 98.8366 55.7798C98.8135 55.6101 98.791 55.4448 99.0672 55.4281C99.0978 55.3822 99.1226 55.347 99.1426 55.3209C99.1428 55.3215 99.143 55.322 99.1432 55.3226C99.1514 55.3454 99.1597 55.3682 99.1676 55.3911C99.1559 55.4382 99.1458 55.4817 99.1365 55.5217C99.0767 55.778 99.0501 55.8923 98.8495 55.9135ZM99.2026 55.259C99.1917 55.2627 99.1727 55.2814 99.1426 55.3209C99.1143 55.2431 99.0863 55.1658 99.0746 55.085C99.0716 55.0645 99.1038 55.0387 99.1699 54.9856C99.2144 54.95 99.2742 54.902 99.349 54.8351C99.2825 54.9973 99.2367 55.1379 99.2026 55.259ZM99.2026 55.259C99.2305 55.2495 99.2052 55.3388 99.1799 55.4281C99.176 55.4157 99.1719 55.4034 99.1676 55.3911C99.1779 55.3499 99.1893 55.3059 99.2026 55.259ZM101.266 52.9036C101.277 53.0572 101.289 53.2116 101.023 53.2277C101.033 53.178 101.028 53.1211 101.024 53.0642C101.013 52.9105 101.001 52.7561 101.268 52.7401C101.258 52.7897 101.262 52.8466 101.266 52.9036ZM102.228 52.1201C101.9 52.3333 101.584 52.5367 101.268 52.7401C101.268 52.7152 101.264 52.6875 101.261 52.6596C101.253 52.5993 101.246 52.5383 101.273 52.5048C101.332 52.429 101.391 52.3529 101.45 52.2769C101.846 51.7655 102.243 51.2541 102.713 50.8035C102.74 51.0994 102.601 51.3302 102.464 51.5566C102.355 51.737 102.248 51.9146 102.228 52.1201ZM102.732 50.7859L102.755 50.8092L102.756 50.8085C102.822 50.7523 102.888 50.6962 102.953 50.6377L102.877 50.5617C102.821 50.6279 102.765 50.694 102.733 50.7847C102.732 50.7851 102.732 50.7855 102.732 50.7859ZM100.779 53.5518C100.768 53.3981 100.756 53.2438 101.023 53.2277L101.025 53.2301C101.015 53.2798 101.019 53.3367 101.024 53.3936C101.035 53.5473 101.046 53.7016 100.78 53.7177C100.77 53.7674 100.774 53.8243 100.778 53.8813C100.79 54.0349 100.801 54.1893 100.535 54.2054C100.525 54.2551 100.529 54.3119 100.533 54.3689C100.544 54.5176 100.556 54.6669 100.315 54.691C100.314 54.6471 100.308 54.6007 100.302 54.5546C100.279 54.3849 100.256 54.2196 100.533 54.2029C100.542 54.1532 100.538 54.0963 100.534 54.0394C100.523 53.8857 100.511 53.7314 100.778 53.7153C100.787 53.6656 100.783 53.6087 100.779 53.5518ZM100.292 54.6928L100.268 54.6685C100.202 54.7248 100.136 54.7812 100.069 54.84L100.145 54.916C100.202 54.8498 100.258 54.7836 100.29 54.693C100.291 54.6929 100.291 54.6929 100.292 54.6928ZM103.813 51.81C103.858 51.7744 103.918 51.7264 103.992 51.6595V51.6619C103.9 51.8619 103.83 52.0088 103.776 52.1183C103.751 52.0496 103.728 51.9808 103.718 51.9094C103.715 51.8889 103.747 51.8631 103.813 51.81ZM103.71 52.2491L103.689 52.2279C103.622 52.2843 103.556 52.3406 103.49 52.3995L103.566 52.4754C103.598 52.4378 103.63 52.4001 103.71 52.2491ZM103.823 52.2524C103.859 52.1257 103.895 51.999 103.795 52.1688C103.805 52.1965 103.814 52.2243 103.823 52.2524ZM100.515 107.514C100.776 107.954 101.061 108.101 101.554 107.841C101.18 107.69 100.868 107.566 100.515 107.514ZM100.557 107.464L100.512 107.508C100.492 107.474 100.472 107.438 100.452 107.4C100.442 107.454 100.376 107.397 100.31 107.341L100.385 107.265L100.557 107.464ZM34.1564 118.809L34.1233 118.747H34.5129V119.468C34.3321 119.134 34.2443 118.972 34.1564 118.809ZM103.953 51.4365V51.3556H104.198V51.4365H103.953ZM104.282 50.7847H104.362V51.0297H104.282V50.7847ZM99.5548 106.915V106.834H99.7999V106.915H99.5548ZM91.4099 111.394H91.329V111.149H91.4099V111.394ZM91.8166 111.394H91.8975V111.639H91.8166V111.394ZM103.221 52.9018V52.8209H103.466V52.9018H103.221ZM104.036 106.018H104.117V106.263H104.036V106.018Z" fill="white"/>
</svg>
